<svg width="29" height="52" viewBox="0 0 29 52" fill="none" xmlns="http://www.w3.org/2000/svg">
<path d="M27.3913 50.3896C26.5799 51.2035 25.2656 51.2035 24.4545 50.3896L1.60852 27.4729C0.79716 26.6591 0.79716 25.3407 1.60852 24.527L24.4545 1.61036C24.8601 1.20352 25.3916 1 25.923 1C26.4543 1 26.9857 1.20352 27.3915 1.61036C28.2028 2.42422 28.2028 3.74259 27.3915 4.55626L6.01384 25.9999L27.3915 47.4437C28.2026 48.2574 28.2026 49.5757 27.3913 50.3896Z" fill="white"/>
<path d="M27.3913 50.3896C26.5799 51.2035 25.2656 51.2035 24.4545 50.3896L1.60852 27.4729C0.79716 26.6591 0.79716 25.3407 1.60852 24.527L24.4545 1.61036C24.8601 1.20352 25.3916 1 25.923 1C26.4543 1 26.9857 1.20352 27.3915 1.61036C28.2028 2.42422 28.2028 3.74259 27.3915 4.55626L6.01384 25.9999L27.3915 47.4437C28.2026 48.2574 28.2026 49.5757 27.3913 50.3896Z" fill="white"/>
<path d="M27.3913 50.3896C26.5799 51.2035 25.2656 51.2035 24.4545 50.3896L1.60852 27.4729C0.79716 26.6591 0.79716 25.3407 1.60852 24.527L24.4545 1.61036C24.8601 1.20352 25.3916 1 25.923 1C26.4543 1 26.9857 1.20352 27.3915 1.61036C28.2028 2.42422 28.2028 3.74259 27.3915 4.55626L6.01384 25.9999L27.3915 47.4437C28.2026 48.2574 28.2026 49.5757 27.3913 50.3896Z" fill="white"/>
<path d="M27.3913 50.3896C26.5799 51.2035 25.2656 51.2035 24.4545 50.3896L1.60852 27.4729C0.79716 26.6591 0.79716 25.3407 1.60852 24.527L24.4545 1.61036C24.8601 1.20352 25.3916 1 25.923 1C26.4543 1 26.9857 1.20352 27.3915 1.61036C28.2028 2.42422 28.2028 3.74259 27.3915 4.55626L6.01384 25.9999L27.3915 47.4437C28.2026 48.2574 28.2026 49.5757 27.3913 50.3896Z" stroke="white"/>
</svg>
